<svg width="22" height="19" viewBox="0 0 22 19" fill="none" xmlns="http://www.w3.org/2000/svg">
<rect width="20" height="16" rx="8" transform="matrix(1 0.000943472 -0.00112867 0.999999 1.00879 1)" fill="#F55123"/>
<path d="M9.18078 5.34929L9.1727 12.5075L8.03989 12.5064L8.04641 6.73494C7.84116 6.88123 7.61967 7.00635 7.38192 7.11029C7.14743 7.21098 6.87877 7.30025 6.57595 7.37809L6.57704 6.41129C6.76592 6.34962 6.94828 6.28469 7.12414 6.21649C7.3 6.1483 7.47261 6.07197 7.64198 5.98749C7.8146 5.90302 7.98723 5.80878 8.15987 5.70478C8.33577 5.60078 8.51657 5.48213 8.70227 5.34884L9.18078 5.34929ZM15.3959 10.2624C15.3955 10.6139 15.3366 10.9345 15.2191 11.2241C15.1048 11.5137 14.945 11.7642 14.7397 11.9756C14.5344 12.1838 14.2901 12.3463 14.0067 12.4632C13.7267 12.5769 13.4222 12.6336 13.0935 12.6333C12.7419 12.6329 12.4181 12.5643 12.122 12.4273C11.8292 12.2903 11.5755 12.0866 11.361 11.8162C11.1497 11.5458 10.9857 11.2104 10.869 10.8099C10.7522 10.4061 10.6942 9.93894 10.6948 9.40834C10.6955 8.76055 10.7726 8.18608 10.9262 7.68493C11.083 7.18377 11.2967 6.76405 11.5673 6.42576C11.8378 6.08748 12.1555 5.83062 12.5203 5.65518C12.8851 5.47974 13.279 5.39222 13.7022 5.39262C13.9659 5.39287 14.2051 5.411 14.4199 5.44701C14.638 5.48302 14.8121 5.53202 14.9422 5.59399L14.9411 6.61449C14.7752 6.5297 14.5978 6.45792 14.4091 6.39915C14.2204 6.34038 14.0039 6.31088 13.7598 6.31065C13.4863 6.31039 13.234 6.36549 13.0028 6.47595C12.7715 6.58641 12.5711 6.74898 12.4016 6.96366C12.2354 7.17509 12.1032 7.43864 12.0052 7.7543C11.9105 8.06671 11.8612 8.428 11.8575 8.83815L11.8868 8.83818C12.0368 8.6072 12.2388 8.4251 12.4929 8.29187C12.7502 8.15865 13.0514 8.0922 13.3964 8.09253C13.7024 8.09282 13.9774 8.14353 14.2215 8.24468C14.4687 8.34257 14.6785 8.48599 14.8509 8.67496C15.0264 8.86067 15.1613 9.08866 15.2554 9.35893C15.3495 9.62595 15.3963 9.9271 15.3959 10.2624ZM14.2533 10.3541C14.2535 10.1523 14.2293 9.96832 14.1806 9.80225C14.1353 9.6362 14.0638 9.49453 13.9663 9.37725C13.872 9.25672 13.7517 9.16383 13.6053 9.09859C13.4621 9.03335 13.2929 9.00064 13.0976 9.00045C12.9023 9.00027 12.7297 9.03591 12.5799 9.10738C12.4333 9.17561 12.3095 9.26663 12.2085 9.38047C12.1074 9.49431 12.0308 9.62444 11.9785 9.77088C11.9295 9.91732 11.905 10.067 11.9048 10.22C11.9046 10.386 11.9272 10.557 11.9726 10.7328C12.0212 10.9054 12.0943 11.0633 12.1918 11.2066C12.2892 11.3499 12.4128 11.4689 12.5624 11.5634C12.7153 11.6547 12.8959 11.7005 13.1043 11.7007C13.2898 11.7008 13.4543 11.6668 13.5976 11.5986C13.7409 11.5304 13.8598 11.4361 13.9543 11.3157C14.0521 11.1954 14.1255 11.0538 14.1745 10.8911C14.2268 10.7252 14.253 10.5461 14.2533 10.3541Z" fill="white"/>
</svg>
