<svg width="28" height="19" viewBox="0 0 28 19" fill="none" xmlns="http://www.w3.org/2000/svg">
<rect width="26.3582" height="16" rx="8" transform="matrix(1 0.000943472 -0.00112867 0.999999 0.829956 0.99707)" fill="#F55123"/>
<path d="M9.13574 5.34673L9.12766 12.5049L7.99485 12.5039L8.00136 6.73238C7.79612 6.87867 7.57462 7.00379 7.33688 7.10773C7.10239 7.20842 6.83373 7.29769 6.53091 7.37553L6.532 6.40873C6.72087 6.34706 6.90324 6.28213 7.07909 6.21393C7.25495 6.14574 7.42757 6.06941 7.59693 5.98493C7.76955 5.90046 7.94219 5.80622 8.11483 5.70222C8.29073 5.59822 8.47153 5.47957 8.65722 5.34628L9.13574 5.34673ZM10.5947 10.5532C10.5949 10.3514 10.6196 10.1561 10.6686 9.96732C10.7209 9.77857 10.7976 9.60449 10.8987 9.44508C10.9998 9.28567 11.1269 9.14256 11.28 9.01575C11.4332 8.88894 11.6123 8.78657 11.8175 8.70864C11.515 8.53908 11.2743 8.32239 11.0956 8.05855C10.9168 7.79145 10.8276 7.49677 10.828 7.1745C10.8283 6.91734 10.8807 6.67976 10.9851 6.46176C11.0927 6.24376 11.2394 6.0551 11.4252 5.89577C11.6141 5.73644 11.8356 5.61295 12.0896 5.5253C12.3437 5.4344 12.6204 5.38908 12.9199 5.38937C13.2226 5.38965 13.5009 5.43549 13.7547 5.52687C14.0117 5.61826 14.233 5.7438 14.4183 5.90348C14.6069 6.06316 14.7532 6.2521 14.8571 6.4703C14.9611 6.68849 15.0129 6.92455 15.0126 7.17845C15.0122 7.50072 14.9224 7.79523 14.743 8.06199C14.5637 8.32549 14.3258 8.54174 14.0294 8.71073C14.2311 8.78904 14.4084 8.89175 14.5613 9.01885C14.7174 9.14269 14.8474 9.28442 14.9514 9.44402C15.0554 9.60362 15.1333 9.77785 15.1852 9.9667C15.2371 10.1556 15.2629 10.3525 15.2627 10.5576C15.2623 10.8636 15.205 11.1435 15.0908 11.3973C14.9766 11.6511 14.8169 11.869 14.6116 12.0511C14.4063 12.23 14.1604 12.3697 13.8738 12.4703C13.5872 12.571 13.2714 12.6211 12.9264 12.6208C12.5846 12.6205 12.2705 12.5697 11.9841 12.4686C11.7011 12.3674 11.4554 12.2272 11.2473 12.0479C11.0424 11.8655 10.8816 11.6472 10.7647 11.3932C10.651 11.1392 10.5944 10.8592 10.5947 10.5532ZM11.6983 10.4566C11.6981 10.6551 11.7272 10.8342 11.7856 10.9938C11.844 11.1533 11.9269 11.2885 12.0342 11.3993C12.1415 11.5101 12.27 11.5948 12.4196 11.6535C12.5726 11.7123 12.7418 11.7417 12.9274 11.7419C13.1064 11.7421 13.2708 11.7129 13.4206 11.6545C13.5704 11.5928 13.6991 11.5066 13.8066 11.3961C13.9175 11.2822 14.0039 11.1472 14.0659 10.991C14.1279 10.8316 14.159 10.6542 14.1593 10.4589C14.1595 10.2799 14.1304 10.1122 14.0719 9.95589C14.0135 9.79632 13.9307 9.6579 13.8234 9.54061C13.7161 9.42332 13.586 9.33043 13.4331 9.26192C13.2834 9.19342 13.1158 9.15908 12.9303 9.15891C12.7545 9.15874 12.5901 9.19114 12.437 9.2561C12.2872 9.31781 12.1569 9.4072 12.0461 9.52429C11.9385 9.63812 11.8537 9.77476 11.7917 9.9342C11.7297 10.0936 11.6985 10.2678 11.6983 10.4566ZM11.9412 7.29274C11.941 7.43923 11.9669 7.57597 12.0188 7.70297C12.0708 7.82672 12.1406 7.93583 12.2284 8.03032C12.3162 8.12155 12.4187 8.19326 12.5358 8.24545C12.6562 8.29765 12.7847 8.32381 12.9214 8.32394C13.0582 8.32407 13.1851 8.29815 13.3024 8.24617C13.4229 8.19095 13.5271 8.11781 13.6151 8.02674C13.7064 7.93243 13.7781 7.82345 13.8304 7.6998C13.8826 7.57289 13.9088 7.43783 13.9089 7.2946C13.9091 7.14811 13.8832 7.01137 13.8313 6.88437C13.7826 6.75737 13.7144 6.64826 13.6266 6.55703C13.5388 6.4658 13.4347 6.39408 13.3143 6.34189C13.1939 6.28969 13.0637 6.26353 12.9238 6.26339C12.7773 6.26326 12.6438 6.2908 12.5233 6.34602C12.4028 6.39799 12.2985 6.47114 12.2105 6.56546C12.1258 6.65978 12.0589 6.77039 12.01 6.8973C11.9643 7.02095 11.9413 7.15277 11.9412 7.29274ZM20.2342 5.51346L20.2291 10.0349L21.2691 10.0359L21.2681 10.9783L20.228 10.9773L20.2263 12.5154L19.1277 12.5144L19.1294 10.9763L15.9604 10.9733L15.9615 10.0211C16.2483 9.69915 16.5417 9.35112 16.8416 8.97705C17.1448 8.59973 17.4349 8.21589 17.712 7.82553C17.9924 7.43191 18.2517 7.03828 18.4897 6.64462C18.7278 6.25097 18.9284 5.87355 19.0916 5.51238L20.2342 5.51346ZM19.1305 10.0339L19.1338 7.09445C18.7782 7.73213 18.426 8.28844 18.0772 8.76337C17.7316 9.23831 17.4072 9.66118 17.1041 10.032L19.1305 10.0339Z" fill="white"/>
</svg>
