<svg width="18" height="19" viewBox="0 0 18 19" fill="none" xmlns="http://www.w3.org/2000/svg">
<rect width="16" height="16" rx="8" transform="matrix(1 0.000943472 -0.00112867 0.999999 1.00879 1.00195)" fill="#F55123"/>
<path d="M11.0692 12.5112L6.67466 12.507L6.67527 11.965C6.67552 11.7437 6.70668 11.537 6.76874 11.345C6.83081 11.1497 6.91402 10.9675 7.01838 10.7984C7.12274 10.6259 7.245 10.4649 7.38514 10.3153C7.52529 10.1624 7.67519 10.0161 7.83485 9.87628C7.99452 9.7332 8.15744 9.59664 8.3236 9.46658C8.48976 9.33328 8.65267 9.19997 8.81233 9.06665C8.96221 8.93984 9.09907 8.81627 9.22291 8.69595C9.34674 8.57237 9.45268 8.44551 9.54072 8.31539C9.62876 8.18526 9.69727 8.04861 9.74626 7.90543C9.79525 7.75899 9.81984 7.60113 9.82004 7.43186C9.82025 7.24632 9.79113 7.08516 9.73269 6.94838C9.67751 6.80836 9.59789 6.69272 9.49382 6.60148C9.39302 6.50698 9.27266 6.43688 9.13273 6.39117C8.99281 6.34221 8.83985 6.31766 8.67383 6.3175C8.38737 6.31723 8.09596 6.38369 7.79958 6.51687C7.50321 6.65005 7.21815 6.84998 6.94441 7.11665L6.94564 6.02778C7.08899 5.9205 7.23395 5.82786 7.38053 5.74987C7.5271 5.66863 7.67854 5.60204 7.83485 5.55011C7.99117 5.49492 8.1556 5.45438 8.32816 5.4285C8.50071 5.40262 8.68464 5.38978 8.87996 5.38996C9.19571 5.39026 9.48212 5.43285 9.73919 5.51772C9.99626 5.59935 10.2158 5.72162 10.398 5.88456C10.5801 6.04423 10.7198 6.24456 10.8172 6.48554C10.9178 6.72652 10.968 7.00326 10.9676 7.31576C10.9673 7.59896 10.9312 7.85446 10.8593 8.08226C10.7907 8.3068 10.6912 8.51667 10.5608 8.71186C10.4336 8.90705 10.2788 9.09245 10.0963 9.26806C9.91379 9.44367 9.71014 9.62414 9.48532 9.80948C9.29635 9.96229 9.10738 10.1119 8.91841 10.2582C8.7327 10.4012 8.5649 10.5427 8.415 10.6825C8.2651 10.8191 8.14288 10.9573 8.04832 11.0972C7.95702 11.2338 7.91129 11.3721 7.91113 11.5121L7.9111 11.5365L11.0703 11.5395L11.0692 12.5112Z" fill="white"/>
</svg>
